<?xml version="1.0" encoding="UTF-8" standalone="no"?>
<svg
   xmlns:dc="http://purl.org/dc/elements/1.1/"
   xmlns:cc="http://creativecommons.org/ns#"
   xmlns:rdf="http://www.w3.org/1999/02/22-rdf-syntax-ns#"
   xmlns:svg="http://www.w3.org/2000/svg"
   xmlns="http://www.w3.org/2000/svg"
   xmlns:sodipodi="http://sodipodi.sourceforge.net/DTD/sodipodi-0.dtd"
   xmlns:inkscape="http://www.inkscape.org/namespaces/inkscape"
   inkscape:export-ydpi="87.300003"
   inkscape:export-xdpi="87.300003"
   inkscape:export-filename="/home/tstapler/Programming/personal-website/resources/nea_onim_icon.png"
   inkscape:version="1.0 (4035a4fb49, 2020-05-01)"
   sodipodi:docname="nea_onim_icon.svg"
   version="1.1"
   id="svg1469"
   width="500"
   height="500"
   viewBox="0 0 500 500">
  <sodipodi:namedview
     inkscape:current-layer="svg1469"
     inkscape:window-maximized="1"
     inkscape:window-y="22"
     inkscape:window-x="0"
     inkscape:cy="265.1362"
     inkscape:cx="238"
     inkscape:zoom="1.376"
     showgrid="false"
     id="namedview839"
     inkscape:window-height="878"
     inkscape:window-width="1600"
     inkscape:pageshadow="2"
     inkscape:pageopacity="0"
     guidetolerance="10"
     gridtolerance="10"
     objecttolerance="10"
     borderopacity="1"
     bordercolor="#666666"
     pagecolor="#ffffff" />
  <metadata
     id="metadata1475">
    <rdf:RDF>
      <cc:Work
         rdf:about="">
        <dc:format>image/svg+xml</dc:format>
        <dc:type
           rdf:resource="http://purl.org/dc/dcmitype/StillImage" />
        <dc:title></dc:title>
      </cc:Work>
    </rdf:RDF>
  </metadata>
  <defs
     id="defs1473" />
  <g
     transform="translate(12.901927,-1.8303449)"
     id="g1477">
    <g
       id="g1481"
       transform="translate(-6.1517994,0.72101862)">
      <path
         style="fill:#000000;fill-opacity:1;stroke-width:1.00068"
         d="m 286.2021,501.39019 c -0.12854,-0.1376 -0.46627,-32.89732 -0.75051,-72.7994 l -0.51681,-72.54923 H 270.42495 255.9151 v 70.29782 70.29782 l -19.51325,6e-5 -19.51323,6e-5 0.27001,-70.02367 0.27001,-70.02366 -2.27138,-0.56192 c -1.24924,-0.30906 -8.57564,-0.43247 -16.28087,-0.27422 l -14.00951,0.28771 -0.25702,69.29702 -0.25701,69.29702 H 95.299273 6.2456827 V 481.62677 468.61795 H 74.863674 c 58.134676,0 68.836396,-0.2184 70.047526,-1.42954 1.97528,-1.97527 2.0064,-28.24739 0.0366,-30.84236 -1.24244,-1.63675 -5.6545,-1.75119 -67.513977,-1.75119 H 11.249078 v -13.00883 -13.00882 h 66.116294 c 56.419968,0 66.329068,-0.21277 67.567148,-1.45087 1.18902,-1.18901 1.40187,-5.0267 1.17937,-21.26442 l -0.27148,-19.81357 -65.79465,-0.25737 c -51.619947,-0.20191 -65.797156,-0.5253 -65.806332,-1.50101 -0.006,-0.68402 -0.01098,-47.17482 -0.01008,-103.31291 l 0.002,-102.06927 65.249906,-0.25748 c 50.675346,-0.19997 65.426296,-0.53524 66.039636,-1.50102 0.43435,-0.68394 0.79661,-13.77168 0.80504,-29.08386 0.0126,-22.80906 -0.24303,-28.098649 -1.41422,-29.269845 -1.20894,-1.208954 -11.24573,-1.429536 -65.044124,-1.429536 H 16.253003 V 83.856878 70.347711 H 81.29714 146.34127 V 51.441872 c 0,-16.316542 -0.21679,-18.989025 -1.58286,-19.51324 -0.87057,-0.334077 -31.26619,-0.607403 -67.545822,-0.607403 H 11.249608 V 17.812062 4.3028954 H 97.808355 184.36708 V 85.322681 c 0,79.077739 0.0464,81.044629 1.93557,82.055679 1.06456,0.56973 7.59399,1.03589 14.50984,1.03589 10.51002,0 12.57428,-0.24642 12.57428,-1.50103 0,-0.82556 0.45825,-1.50101 1.01833,-1.50101 0.68436,0 0.93049,-26.09061 0.75051,-79.55411 l -0.26783,-79.5541364 19.26307,1.495e-4 19.26308,1.404e-4 V 85.776391 c 0,43.709669 0.27332,80.184419 0.6074,81.054989 0.90997,2.37137 29.89694,2.37137 30.80692,0 0.33408,-0.87057 0.60741,-38.47108 0.60741,-83.556687 V 1.3008584 h 95.0645 95.06451 V 15.310365 29.319871 h -73.46806 c -40.40744,0 -74.18036,0.273326 -75.05092,0.607403 -1.36997,0.525706 -1.58287,3.284888 -1.58287,20.513919 v 19.906518 h 70.49068 70.49067 l 0.30737,12.758657 c 0.18592,7.71793 -0.088,13.049119 -0.69333,13.493851 -0.55036,0.404347 -31.62145,0.756399 -69.04684,0.782326 -54.97757,0.03815 -68.38251,0.302462 -69.79736,1.376482 -1.60162,1.215804 -1.75119,3.981633 -1.75119,32.383173 0,27.39393 0.18655,31.12544 1.58287,31.66124 0.87056,0.33409 33.51772,0.60741 72.54922,0.60741 h 70.96636 v 97.56621 97.5662 h -71.11968 c -60.30282,0 -71.33711,0.21742 -72.54924,1.42954 -1.16852,1.16853 -1.42953,6.37576 -1.42953,28.51934 0,17.39277 0.3582,27.08983 1.00068,27.08983 0.55037,0 1.00067,0.67544 1.00067,1.50101 0,1.32024 8.61696,1.50102 71.54856,1.50102 h 71.54854 v 13.00882 13.00883 h -71.11968 c -60.30282,0 -71.33711,0.21743 -72.54924,1.42955 -2.19837,2.19837 -2.06238,26.13249 0.15334,26.98274 0.87056,0.33408 36.21954,0.6074 78.55329,0.6074 h 76.97045 v 14.00951 14.0095 h -98.06655 c -53.9366,0 -98.17171,-0.11253 -98.30025,-0.25016 z M 80.714429,336.9216 c 1.423604,-0.54628 1.582857,-8.04618 1.582857,-74.53915 0,-68.51097 -0.126352,-74.07933 -1.723406,-75.94454 -1.609243,-1.87946 -2.927307,-2.01281 -19.896873,-2.01281 -18.000644,0 -18.179195,0.0214 -18.776841,2.25154 -0.331865,1.23833 -0.609533,35.68672 -0.617049,76.55194 l -0.01371,74.30042 h 18.931055 c 10.412085,0 19.643349,-0.27333 20.513922,-0.6074 z m 65.626311,-74.44353 c 0,-49.36682 -0.34245,-75.05092 -1.00068,-75.05092 -0.55037,0 -1.00067,-0.67546 -1.00067,-1.50102 0,-1.27195 -2.45342,-1.50103 -16.07665,-1.50103 -9.1684,0 -16.90839,0.44514 -18.01223,1.03589 -1.88739,1.01011 -1.93557,2.91559 -1.93557,76.55195 V 337.529 h 19.0129 19.0129 z m 226.91072,-0.75051 c 0.22688,-62.07343 0.0805,-70.2977 -1.25084,-70.2977 -0.82928,0 -1.50777,-0.4503 -1.50777,-1.00068 0,-0.63534 -7.67189,-1.00067 -21.01427,-1.00067 -13.34238,0 -21.01426,0.36533 -21.01426,1.00067 0,0.55038 -0.67546,1.00068 -1.50101,1.00068 -1.31993,0 -1.50102,8.44092 -1.50102,69.96415 0,55.02991 0.267,70.07391 1.25084,70.47841 0.68797,0.28287 11.38273,0.43296 23.76614,0.33357 l 22.51527,-0.18072 z m 71.29163,0.25018 c 0,-62.04211 -0.18098,-70.54788 -1.50102,-70.54788 -0.82556,0 -1.50101,-0.4503 -1.50101,-1.00068 0,-0.63302 -7.19538,-1.00067 -19.58473,-1.00067 -15.63918,0 -19.87271,0.28799 -21.01425,1.42953 -1.21174,1.21174 -1.42955,12.11299 -1.42955,71.54856 v 70.119 h 22.51528 22.51528 z M 284.93478,300.50387 V 272.9852 h -50.03395 -50.03395 l -0.26684,26.94897 c -0.20688,20.89058 0.0181,27.13104 1.00067,27.7589 0.69714,0.44547 23.3325,0.70184 50.30081,0.56971 l 49.03326,-0.24024 z m 0.50035,-80.05432 v -26.01766 h -50.5343 -50.53428 v 26.01766 26.01766 h 50.53428 50.5343 z"
         id="path1483" />
    </g>
  </g>
</svg>
